<svg version="1.1" id="Layer_1" xmlns="http://www.w3.org/2000/svg" xmlns:xlink="http://www.w3.org/1999/xlink" x="0px" y="0px"
	 width="100%" viewBox="0 0 512 512" enable-background="new 0 0 512 512" xml:space="preserve">
<path fill="#E04006" opacity="1.000000" stroke="none" 
	d="
M0.999997,296.000000 
	C1.000000,276.312439 1.000000,256.624878 1.418462,236.615540 
	C2.224580,234.614960 2.816066,232.953674 2.961960,231.254120 
	C3.413351,225.995789 3.272842,220.653885 4.120536,215.468399 
	C6.837059,198.850876 10.913069,182.565491 17.069157,166.844101 
	C23.751949,149.777634 32.591850,133.999741 45.073067,120.466583 
	C64.574333,99.321739 88.491867,85.199852 115.804810,76.661919 
	C121.274048,74.952255 126.913185,73.786102 132.276749,72.419594 
	C132.992767,75.642586 133.311600,77.573105 133.854233,79.438515 
	C137.015549,90.306015 144.929504,96.812103 154.868317,100.735825 
	C159.019897,102.374832 158.395737,104.390320 156.670532,106.506157 
	C151.674362,112.633568 146.934555,119.205101 140.951263,124.245735 
	C126.553345,136.375290 109.852753,144.745712 92.080040,150.794800 
	C88.496040,152.014633 88.166008,153.634201 89.143517,156.477188 
	C92.596901,166.520905 99.907547,173.661316 107.934372,179.889709 
	C126.059349,193.953766 147.362793,198.613037 169.732468,198.883743 
	C181.406235,199.024979 192.803497,196.452072 203.866837,192.596298 
	C210.614166,190.244751 217.415405,188.047897 224.506714,185.676468 
	C227.110794,192.971893 229.302094,199.972824 232.088760,206.728134 
	C237.022980,218.689468 242.160660,230.562714 250.910431,240.448654 
	C261.068939,251.926239 274.157379,258.284821 288.433563,262.881744 
	C291.793884,263.963776 294.439423,263.612244 296.888641,261.504700 
	C299.023712,259.667480 301.099365,257.667847 302.800629,255.434769 
	C314.564911,239.993073 318.345612,221.890717 320.003510,203.103088 
	C320.765228,194.471481 321.560486,185.842834 322.387451,176.693390 
	C324.120209,177.346817 325.710388,177.539032 326.748016,178.398407 
	C344.544373,193.138016 365.421295,192.762772 386.373932,189.738251 
	C396.252380,188.312317 405.817627,183.829163 412.295593,175.839767 
	C417.385010,169.562897 421.276428,162.172531 424.861633,154.865448 
	C427.496155,149.496063 428.774384,143.461227 431.101349,136.368530 
	C419.038971,138.717148 410.021851,135.193192 401.256683,130.123703 
	C392.990601,125.342888 383.555206,122.449997 375.877167,115.098328 
	C380.259735,113.417610 383.487976,112.338036 386.585205,110.963295 
	C397.695648,106.031769 408.160614,100.335655 412.603760,87.860893 
	C413.915710,84.177444 416.500916,84.434486 419.397644,85.805954 
	C426.326385,89.086464 433.371613,92.141281 440.172546,95.667679 
	C464.455627,108.258789 482.593109,127.154610 494.629181,151.491562 
	C504.877838,172.214294 510.832062,194.278671 511.085785,217.642700 
	C511.097992,218.768600 512.333923,219.881195 513.000000,221.000000 
	C513.000000,237.020889 513.000000,253.041794 512.580872,269.385071 
	C511.776031,270.720520 511.152069,271.708313 511.041534,272.750519 
	C509.984711,282.715057 509.305359,292.728058 507.963776,302.652283 
	C504.387238,329.109741 496.152313,354.212067 484.356262,378.062317 
	C472.046875,402.950562 456.152649,425.416992 435.347839,443.965027 
	C424.590149,453.555756 413.384094,462.815216 401.495544,470.927185 
	C381.666992,484.456909 359.865326,494.164612 336.793610,501.000458 
	C315.749420,507.235565 294.369049,511.041107 272.368103,511.004089 
	C259.037201,510.981689 245.700348,511.236267 232.377625,510.905396 
	C225.163727,510.726227 217.854279,510.174561 210.795944,508.755981 
	C191.091766,504.795837 171.892136,499.201691 153.313354,491.251556 
	C126.632874,479.834534 102.657646,464.313568 81.449303,444.742706 
	C60.916962,425.795593 43.342552,404.384369 29.763809,379.683167 
	C15.726398,354.147583 6.016544,327.397705 2.917632,298.343628 
	C2.828056,297.503815 1.663384,296.778625 0.999997,296.000000 
z"/>


<path fill="#E04006" opacity="1.000000" stroke="none" 
	d="
M390.004425,62.060600 
	C393.350586,61.040176 396.287048,60.074703 399.230011,59.107098 
	C400.830719,65.575768 386.141571,86.545265 375.215363,95.573372 
	C362.198456,106.328957 346.979919,103.555679 332.058136,104.363258 
	C348.963959,110.630714 361.064728,123.180687 373.678040,135.104218 
	C381.385742,142.390472 390.401581,147.655884 400.496643,151.051376 
	C401.756042,151.474945 402.797852,152.545410 403.940460,153.316147 
	C402.969788,154.540161 402.251984,156.218277 400.990814,156.920547 
	C379.894745,168.667465 358.237854,169.380188 336.260986,159.635971 
	C314.792542,150.117188 298.294464,134.364166 283.265869,116.824455 
	C282.464142,115.888763 281.415680,115.164490 279.944855,114.495064 
	C297.167145,152.433151 300.289246,191.126678 287.191833,232.329117 
	C279.694244,226.014572 272.219818,220.827591 266.128357,214.341721 
	C255.776627,203.319778 247.999954,190.188095 245.948593,175.178284 
	C244.156021,162.062103 244.939713,148.567856 244.967072,135.241425 
	C244.978348,129.758743 245.989502,124.278091 246.681595,117.459145 
	C228.245148,157.242020 197.606155,173.641342 155.549210,168.886047 
	C141.750458,167.325836 126.250771,161.168610 125.031387,157.319946 
	C136.950333,154.790192 146.688568,148.155060 155.288330,139.997375 
	C161.251480,134.340775 166.542435,127.920944 171.737350,121.520416 
	C182.647583,108.078156 195.423706,97.854866 213.359177,95.996262 
	C219.097870,95.401581 224.858612,95.019737 230.790390,94.030197 
	C223.152618,92.686523 215.507629,91.382408 207.878616,89.990814 
	C192.638870,87.210930 177.215012,85.317543 163.729187,76.451340 
	C150.657394,67.857323 143.712799,55.690239 141.041977,40.713043 
	C140.018417,34.973228 139.415375,29.158430 138.620728,23.377800 
	C139.127045,23.150335 139.633362,22.922871 140.139679,22.695406 
	C141.075928,23.715807 142.273361,24.596022 142.907913,25.778341 
	C149.091461,37.299728 158.087082,44.107319 171.632568,45.146614 
	C185.012573,46.173218 198.379532,47.895054 211.610794,50.143864 
	C219.933289,51.558365 226.988602,56.268478 233.412308,61.836727 
	C238.860718,66.559563 244.611786,70.933212 249.434525,74.820976 
	C254.839462,58.702347 264.103363,41.380421 275.940735,25.526590 
	C281.388672,18.230131 287.259979,11.087232 293.885773,4.885910 
	C298.887207,0.204869 311.176422,2.537138 316.434204,8.426617 
	C295.926514,28.580738 283.539551,53.049347 279.446960,82.506020 
	C289.739594,74.235748 300.127563,67.689507 312.120941,63.865753 
	C323.752533,60.157345 335.467926,61.440636 347.189087,62.623600 
	C361.358459,64.053650 375.515808,67.231873 390.004425,62.060600 
z"/>
</svg>