<svg version="1.1" id="Layer_1" xmlns="http://www.w3.org/2000/svg" xmlns:xlink="http://www.w3.org/1999/xlink" x="0px" y="0px"
	 width="100%" viewBox="0 0 512 512" enable-background="new 0 0 512 512" xml:space="preserve">
<path class="svgColor" fill="#008000" opacity="1.000000" stroke="none" 
	d="
M0.999999,296.000000 
	C1.000000,276.312439 1.000000,256.624878 1.411251,236.420532 
	C2.212327,234.548996 2.916172,233.200760 2.944387,231.838516 
	C3.307787,214.294037 6.978391,197.325958 12.244209,180.715652 
	C19.259445,158.587021 29.002281,137.840683 44.971973,120.545998 
	C64.584343,99.306404 88.636116,85.176239 116.039734,76.541321 
	C121.277939,74.890755 126.710945,73.858406 132.400131,72.455498 
	C133.829895,85.378967 140.573792,93.342926 150.576706,98.768593 
	C158.973282,103.322968 159.071640,103.189934 153.832687,111.277855 
	C153.118225,112.380821 152.110672,113.297676 151.215118,114.279068 
	C135.475555,131.527252 115.616570,142.214310 94.014000,150.079971 
	C88.122253,152.225204 87.914452,152.370956 89.931480,158.117111 
	C93.151154,167.289413 99.919136,173.971115 107.305267,179.386887 
	C132.398071,197.785751 160.648758,202.585464 190.763733,196.045364 
	C200.754654,193.875671 210.432739,190.210754 220.179520,187.003510 
	C223.273895,185.985291 225.301605,186.012970 226.045486,189.668411 
	C226.275192,190.797226 226.645462,191.921799 227.118744,192.972961 
	C233.296677,206.694260 238.258087,221.159683 246.016266,233.924042 
	C256.036926,250.410828 272.783691,258.633820 291.107483,263.425446 
	C292.285370,263.733459 293.996521,263.158813 295.093109,262.437561 
	C303.502716,256.906494 308.229523,248.503677 311.917053,239.560028 
	C318.311646,224.050781 320.169189,207.618805 321.039734,191.019958 
	C321.278595,186.466080 321.969696,181.935913 322.474731,177.192978 
	C323.606384,177.341782 324.274750,177.319778 324.856720,177.533310 
	C325.627289,177.816025 326.416443,178.176041 327.049774,178.686295 
	C344.818054,193.001633 365.513367,192.807785 386.322205,189.722885 
	C396.334778,188.238525 405.742188,183.584549 412.562469,175.604172 
	C420.640961,166.151581 425.721771,154.987610 429.058472,143.047424 
	C429.548645,141.293304 429.602631,139.417282 430.002045,136.576035 
	C418.782501,138.698532 409.845764,135.058182 401.180939,130.104904 
	C392.978516,125.415947 383.648041,122.507233 375.999054,115.149010 
	C380.446777,113.397614 383.562958,112.289368 386.582001,110.960510 
	C397.691559,106.070564 408.080719,100.331169 412.570129,87.949570 
	C413.669708,84.916962 416.019226,84.364716 418.616486,85.427917 
	C424.440430,87.812004 430.348907,90.099472 435.882690,93.061874 
	C452.225586,101.810692 466.984802,112.519753 478.804443,127.147644 
	C489.795532,140.750122 497.642395,155.850555 503.056580,172.369385 
	C507.936829,187.259155 510.960083,202.445267 511.120270,218.166168 
	C511.129974,219.117081 512.345520,220.055679 513.000000,221.000000 
	C513.000000,237.020889 513.000000,253.041794 512.588379,269.580048 
	C511.789398,271.285583 511.171539,272.451172 511.052490,273.665619 
	C510.326324,281.072968 509.914124,288.515503 509.027527,295.901917 
	C505.541748,324.942444 497.056335,352.546631 484.037964,378.670349 
	C471.757111,403.314056 455.457886,425.014008 435.523499,444.151031 
	C413.925385,464.885254 389.381348,481.053650 361.656586,491.837616 
	C344.622192,498.463409 326.858612,503.607880 309.025421,507.677612 
	C290.702576,511.859100 271.751648,510.887238 252.981384,511.123230 
	C229.431000,511.419312 206.436752,508.958649 183.768753,502.221985 
	C154.383423,493.489014 127.264854,480.426819 102.683662,462.160675 
	C87.465149,450.851868 73.156563,438.467346 61.227169,423.642548 
	C52.524612,412.827881 43.252110,402.257355 36.144825,390.429596 
	C27.908867,376.723541 21.111807,362.035431 14.893155,347.267090 
	C8.470285,332.013763 4.471590,315.917847 2.908891,299.317871 
	C2.800102,298.162262 1.660333,297.103699 0.999999,296.000000 
z"/>


<path class="svgColor" fill="#008000" opacity="1.000000" stroke="none" 
	d="
M390.012451,62.102921 
	C393.350647,61.092945 396.292938,60.172298 399.235199,59.251648 
	C399.657440,59.657913 400.079681,60.064175 400.501923,60.470436 
	C394.747650,73.836143 386.777557,85.643349 375.453766,95.347816 
	C362.906555,106.100769 347.813629,103.913704 332.565552,103.941345 
	C338.898010,107.753006 344.952362,110.750214 350.252472,114.747505 
	C357.244751,120.020981 363.925110,125.788872 370.232330,131.870255 
	C378.966644,140.291809 388.674774,146.926010 400.137421,150.997421 
	C401.500671,151.481613 402.562775,152.813660 403.764465,153.752701 
	C402.669708,154.901199 401.773804,156.405609 400.450470,157.144928 
	C379.927460,168.610397 358.807556,169.197067 337.353088,160.083832 
	C315.543335,150.819687 298.955566,134.900238 283.677887,117.377174 
	C283.132690,116.751877 282.584595,116.116043 281.955353,115.582382 
	C281.617920,115.296204 281.104462,115.217567 279.501465,114.581245 
	C297.123779,152.782913 300.244141,191.176971 287.178192,232.240402 
	C279.688812,225.980804 272.447021,220.972885 266.502136,214.729965 
	C255.923630,203.621063 248.097336,190.328583 245.914627,175.151993 
	C244.043991,162.145355 244.788498,148.734909 244.775330,135.502640 
	C244.770111,130.274933 245.844223,125.046165 246.220901,119.227936 
	C227.792084,157.433044 197.311646,173.760254 155.756638,168.741287 
	C145.088852,167.452866 134.546295,164.391434 124.047783,158.926041 
	C131.645477,155.154312 138.645859,152.918213 144.089996,148.682098 
	C151.986359,142.537872 159.215134,135.357712 165.907166,127.883842 
	C177.008743,115.485260 187.291885,102.098022 204.497055,97.890762 
	C212.627563,95.902580 221.078964,95.226753 229.518478,93.935898 
	C224.780258,92.998291 219.851288,91.993500 214.910370,91.051270 
	C204.196579,89.008179 193.323135,87.586311 182.793488,84.841820 
	C164.690338,80.123329 150.473801,69.990768 144.096420,51.684319 
	C141.408554,43.968739 140.593079,35.591606 139.073837,27.487568 
	C138.829025,26.181583 139.357346,24.730661 139.528275,23.346737 
	C139.949112,23.208717 140.369949,23.070696 140.790787,22.932676 
	C141.704758,24.305233 142.680145,25.641214 143.522919,27.056177 
	C149.849304,37.677643 158.549149,44.276039 171.421051,45.133900 
	C182.953613,45.902496 194.457352,47.335197 205.919083,48.880722 
	C222.758087,51.151337 234.764999,61.216312 244.983612,73.947250 
	C245.883255,75.068062 246.851181,76.134071 248.031967,77.510674 
	C251.211182,70.221725 253.986923,63.376602 257.144501,56.712391 
	C265.281586,39.538788 276.017914,24.034147 288.113800,9.444939 
	C295.036194,1.095679 309.236450,0.277071 316.286713,8.503159 
	C296.149353,28.526785 283.664795,52.652431 279.746765,80.757645 
	C289.297241,75.444748 298.215240,69.723190 307.755981,65.364868 
	C320.238831,59.662548 333.682434,61.061352 346.853790,62.508125 
	C361.147949,64.078239 375.392639,67.034348 390.012451,62.102921 
z"/>
</svg>